<svg height="512" viewBox="0 0 60 60" width="512" xmlns="http://www.w3.org/2000/svg"><g id="Page-1" fill="none" fill-rule="evenodd"><g id="007---Alert-Unseen" transform="translate(-1 -1)"><path id="Path" d="m60 17c0 8.2842712-6.7157288 15-15 15s-15-6.7157288-15-15c0-8.28427125 6.7157288-15 15-15 8.2831279.00275966 14.9972403 6.71687211 15 15z" fill="#c6d8fb"/><path id="Path" d="m45 2c-.5 0-1 .028-1.487.077 7.6554906.775251 13.4827853 7.21747182 13.4887152 14.9121138.0059298 7.694642-5.8114286 14.1458367-13.4657152 14.9328862.482.047.969.078 1.464.078 8.2842712-.0000001 14.9999998-6.7157288 14.9999998-15 0-8.28427116-6.7157286-14.99999988-14.9999998-15z" fill="#a4c3fd"/><path id="Path" d="m42.43 51.83c-4.4324625.9415235-8.922212 1.5895975-13.44 1.94-1.93.14-3.94.23-5.99.23s-4.06-.09-5.99-.23c-4.517788-.3504025-9.00753753-.9984765-13.44-1.94-.69319735-.1515335-1.25420868-.6590119-1.47426982-1.3335919-.22006113-.6745799-.06622229-1.4152564.40426982-1.9464081 3.59754819-4.2270402 5.55029928-9.6095323 5.5-15.16v-5.39c-.00486142-4.106278 1.67600615-8.0345509 4.6496098-10.8663744 2.9736036-2.8318234 6.9792448-4.3189288 11.0803902-4.1136256 1.1074784.050442 2.2051034.2317012 3.27.54 1.0977583.3115719 2.155031.7512631 3.15 1.31-.8933763 6.2752204 2.2471155 12.4361853 7.85 15.4v3.12c-.0485925 5.5501755 1.9039489 10.9320896 5.5 15.16.4704921.5311517.6243309 1.2718282.4042698 1.9464081-.2200611.67458-.7810725 1.1820584-1.4742698 1.3335919z" fill="#e8edfc"/><path id="Path" d="m43.5 48.55c-3.5960511-4.2279104-5.5485925-9.6098245-5.5-15.16v-3.12c-5.6028845-2.9638147-8.7433763-9.1247796-7.85-15.4-.994969-.5587369-2.0522417-.9984281-3.15-1.31-1.0648966-.3082988-2.1625216-.489558-3.27-.54-.779638-.0371458-1.560983-.0137423-2.337.07.8817107.0753622 1.7544824.2327089 2.607.47 1.0977583.3115719 2.155031.7512631 3.15 1.31-.8933763 6.2752204 2.2471155 12.4361853 7.85 15.4v3.12c-.0485925 5.5501755 1.9039489 10.9320896 5.5 15.16.4704921.5311517.6243309 1.2718282.4042698 1.9464081-.2200611.67458-.7810725 1.1820584-1.4742698 1.3335919-4.4324625.9415235-8.922212 1.5895975-13.44 1.94-1.454.1-2.962.168-4.49.2.5.011.994.031 1.5.031 2.05 0 4.06-.09 5.99-.23 4.517788-.3504025 9.0075375-.9984765 13.44-1.94.6935826-.1513416 1.2549636-.6590063 1.4750681-1.3339249s.0659438-1.4159359-.4050681-1.9470751z" fill="#cad9fc"/><path id="Path" d="m29 54c-.0000001 3.3137084-2.6862916 5.9999999-6 5.9999999s-5.9999999-2.6862915-6-5.9999999c-.0018676-.0768046.0014734-.1536474.01-.23 1.93.14 3.94.23 5.99.23s4.06-.09 5.99-.23c.0085266.0763526.0118676.1531954.01.23z" fill="#c6d8fb"/><path id="Path" d="m28.99 53.77c-.9786667.0706667-1.9763333.1266667-2.993.168v.062c-.0043159 2.7324612-1.8543017 5.1168873-4.5 5.8 1.7964687.4739753 3.7111936.0857262 5.181145-1.0505817 1.4699513-1.1363079 2.3280075-2.8914854 2.321855-4.7494183.0018676-.0768046-.0014734-.1536474-.01-.23z" fill="#a4c3fd"/><path id="Path" d="m27 11v2.56c-1.0648966-.3082988-2.1625216-.489558-3.27-.54-1.5942661-.0785952-3.1908851.0969316-4.73.52v-2.54c0-2.209139 1.790861-4 4-4s4 1.790861 4 4z" fill="#cad9fc"/><path id="Path" d="m3.57 51.83c4.43246247.9415235 8.922212 1.5895975 13.44 1.94-.0085266.0763526-.0118676.1531954-.01.23.0033976 2.9973313 2.2182416 5.5323628 5.188 5.938l.073.012c.7649199.1018785 1.5425493.0477914 2.286-.159-2.6643938-.6591024-4.538788-3.0463064-4.547-5.791-.0018676-.0768046.0014734-.1536474.01-.23-4.517788-.3504025-9.0075375-.9984765-13.44-1.94-.69319735-.1515335-1.25420868-.6590119-1.47426982-1.3335919-.22006113-.6745799-.06622229-1.4152564.40426982-1.9464081 3.59754819-4.2270402 5.5502993-9.6095323 5.5-15.16v-5.39c-.0014244-6.7449392 4.4993028-12.6613496 11-14.46v-2.54c.0032957-1.62699221.9917334-3.08988001 2.5-3.7-1.231565-.50515004-2.6339915-.36235214-3.7384663.38065818s-1.7652863 1.9882089-1.7615337 3.31934182v2.54c-6.5006972 1.7986504-11.00142436 7.7150608-11 14.46v5.39c.05029928 5.5504677-1.90245181 10.9329598-5.5 15.16-.47049211.5311517-.62433095 1.2718282-.40426982 1.9464081.22006114.67458.78107247 1.1820584 1.47426982 1.3335919z" fill="#fff"/><path id="Path" d="m9.234 19.869 1.721 1.018c-1.26689811 2.1573766-1.94132243 4.6111772-1.955 7.113h-2c.01424202-2.8599649.7849935-5.665238 2.234-8.131z" fill="#fff"/><g fill="#428dff"><path id="Path" d="m45 24c0 .5522847.4477153 1 1 1s1-.4477153 1-1v-15c.0001443-.38454341-.2202266-.73510465-.5668181-.90168187-.3465916-.16657722-.7579978-.1196578-1.0581819.12068187l-5 4c-.2790244.223291-.4177293.5784781-.3638658.9317659.0538634.3532877.2921121.6510032.625.781.3328878.1299967.7098414.0725251.9888658-.1507659l3.375-2.7z"/><path id="Path" d="m8.559 25.038c-.55228473.0027614-1.00223852-.4427153-1.00499994-.995-.00276143-.5522847.44271521-1.0022385.99499994-1.005h.01c.55228475 0 1 .4477153 1 1s-.44771525 1-1 1z"/><path id="Shape" d="m3.363 52.808c4.18224154.8817539 8.4139584 1.5098994 12.672 1.881.3590764 3.5772842 3.3697395 6.3008755 6.965 6.3008755s6.6059236-2.7235913 6.965-6.3008755c4.2563034-.3708145 8.4863337-.9982896 12.667-1.879 1.0313266-.2081304 1.8729119-.9513338 2.207-1.949.3511016-1.0217135.1286972-2.1531913-.583-2.966-3.4398407-4.0453009-5.30593-9.1951535-5.256-14.505v-1.568c6.2116499 2.519487 13.3353466.8998774 17.8470643-4.0576232 4.5117178-4.9575006 5.4549224-12.201847 2.3630194-18.14932923-3.0919031-5.94748225-9.5633959-9.33716804-16.213092-8.49221176s-12.067786 5.74541451-13.5739917 12.27716419c-.467-.212-.942-.395-1.423-.558v-1.842c0-2.76142375-2.2385763-5-5-5s-5 2.23857625-5 5v1.819c-.8955136.2851723-1.761238.6565798-2.585 1.109-1.2726486.6904849-2.4493319 1.5447569-3.5 2.541-1.0352613 1.0133671-1.93536695 2.1561451-2.678 3.4-.14664594.2318854-.18846177.5149467-.11512804.7793291.07333372.2643824.254986.4854587.50012804.6086709.4744045.2366799 1.0509408.0770104 1.336-.37.6503875-1.0879347 1.4374595-2.0880741 2.342-2.976.9203707-.8719121 1.9511688-1.6192912 3.066-2.223 2.244666-1.2038515 4.7723247-1.7804078 7.317-1.669 1.8793456.0932242 3.717657.5833042 5.394 1.438-.048.508-.077 1.022-.077 1.543.0076405 5.7086002 3.0561999 10.9807025 8 13.835v2.555c-.0493913 5.7890096 1.9891491 11.4019186 5.742 15.81.2434838.2781725.3197558.6652532.2 1.015-.1078082.3266787-.3841273.569319-.722.634-6.3192665 1.3539297-12.7577712 2.0744929-19.22 2.151-6.4648272-.0754976-12.9060197-.7953916-19.228-2.149-.33601596-.0655476-.6103039-.3077014-.717-.633-.11919305-.3491419-.0429416-.7353555.2-1.013 3.75498617-4.4090035 5.7946711-10.0239064 5.745-15.815v-5.39c0-.5522847-.44771525-1-1-1s-1 .4477153-1 1v5.39c.05057897 5.3118177-1.81630543 10.4636802-5.258 14.51-.71046151.8126754-.93207421 1.9432435-.581 2.964.33380122.9949828 1.17330964 1.7361292 2.202 1.944zm16.637-40.497v-1.311c0-1.07179679.5717967-2.06217788 1.5-2.59807629.9282032-.5358984 2.0717968-.5358984 3 0 .9282033.53589841 1.5 1.5262795 1.5 2.59807629v1.306c-.7331389-.1485971-1.4760863-.2438467-2.223-.285-1.2657988-.0409254-2.5322859.0563161-3.777.29zm11 4.689c0-7.7319865 6.2680135-14 14-14s14 6.2680135 14 14-6.2680135 14-14 14c-7.7285595-.0082673-13.9917327-6.2714405-14-14zm-3.085 37.84c-.4035536 2.3999632-2.4813445 4.1575431-4.915 4.1575431s-4.5114464-1.7575799-4.915-4.1575431c1.6.1 3.249.16 4.915.16s3.313-.061 4.915-.16z" fill-rule="nonzero"/><path id="Path" d="m13 28c0-5.5228475 4.4771525-10 10-10 .5522847 0 1-.4477153 1-1s-.4477153-1-1-1c-6.627417 0-12 5.372583-12 12 0 .5522847.4477153 1 1 1s1-.4477153 1-1z"/></g></g></g></svg>